<?xml version="1.0" encoding="UTF-8" standalone="no"?>
<svg
   viewBox="0 0 570 110"
   version="1.1"
   id="svg15"
   sodipodi:docname="YouTube*logo.svg"
   inkscape:version="1.1 (c4e8f9e, 2021-05-24)"
   xmlns:inkscape="http://www.inkscape.org/namespaces/inkscape"
   xmlns:sodipodi="http://sodipodi.sourceforge.net/DTD/sodipodi-0.dtd"
   xmlns:xlink="http://www.w3.org/1999/xlink"
   xmlns="http://www.w3.org/2000/svg"
   xmlns:svg="http://www.w3.org/2000/svg">
  <defs
     id="defs19">
    <rect
       x="425.44209"
       y="3.5751436"
       width="63.558108"
       height="85.406208"
       id="rect65652" />
    <rect
       x="425.83933"
       y="2.7806672"
       width="65.544299"
       height="86.200684"
       id="rect59002" />
    <rect
       x="422.26418"
       y="1.9861909"
       width="68.324966"
       height="68.722205"
       id="rect51934" />
    <rect
       x="423.91572"
       y="14.370024"
       width="59.875101"
       height="56.282595"
       id="rect6746" />
    <rect
       x="423.91572"
       y="14.370024"
       width="59.875101"
       height="56.282595"
       id="rect30702" />
    <rect
       x="423.91572"
       y="14.370024"
       width="59.875101"
       height="56.282595"
       id="rect30708" />
  </defs>
  <sodipodi:namedview
     id="namedview17"
     pagecolor="#ffffff"
     bordercolor="#666666"
     borderopacity="1.0"
     inkscape:pageshadow="2"
     inkscape:pageopacity="0.0"
     inkscape:pagecheckerboard="0"
     showgrid="false"
     inkscape:zoom="0.85833773"
     inkscape:cx="237.66869"
     inkscape:cy="207.9601"
     inkscape:window-width="1296"
     inkscape:window-height="847"
     inkscape:window-x="0"
     inkscape:window-y="25"
     inkscape:window-maximized="0"
     inkscape:current-layer="svg15" />
  <path
     d="M154.3 17.5a19.6 19.6 0 0 0-13.8-13.8C128.4.4 79.7.4 79.7.4S31 .5 18.9 3.8A19.6 19.6 0 0 0 5.1 17.6C1.44 39.1.02 71.86 5.2 92.5A19.6 19.6 0 0 0 19 106.3c12.1 3.3 60.8 3.3 60.8 3.3s48.7 0 60.8-3.3a19.6 19.6 0 0 0 13.8-13.8c3.86-21.53 5.05-54.27-.1-75z"
     fill="red"
     id="path2" />
  <path
     fill="#fff"
     d="M64.2 78.4L104.6 55 64.2 31.6z"
     id="path4" />
  <g
     fill="#282828"
     id="g11">
    <path
       d="M227.9 99.7c-3.1-2.1-5.3-5.3-6.6-9.7s-1.9-10.2-1.9-17.5v-9.9c0-7.3.7-13.3 2.2-17.7 1.5-4.5 3.8-7.7 7-9.7s7.3-3.1 12.4-3.1c5 0 9.1 1 12.1 3.1s5.3 5.3 6.7 9.7 2.1 10.3 2.1 17.6v9.9c0 7.3-.7 13.1-2.1 17.5s-3.6 7.6-6.7 9.7c-3.1 2-7.3 3.1-12.5 3.1-5.4.1-9.6-1-12.7-3zM245.2 89c.9-2.2 1.3-5.9 1.3-10.9V56.8c0-4.9-.4-8.5-1.3-10.7-.9-2.3-2.4-3.4-4.5-3.4s-3.5 1.1-4.4 3.4-1.3 5.8-1.3 10.7v21.3c0 5 .4 8.7 1.2 10.9s2.3 3.3 4.5 3.3c2.1 0 3.6-1.1 4.5-3.3zm219.2-16.3v3.5l.4 9.9c.3 2.2.8 3.8 1.6 4.8s2.1 1.5 3.8 1.5c2.3 0 3.9-.9 4.7-2.7.9-1.8 1.3-4.8 1.4-8.9l13.3.8c.1.6.1 1.4.1 2.4 0 6.3-1.7 11-5.2 14.1s-8.3 4.7-14.6 4.7c-7.6 0-12.9-2.4-15.9-7.1s-4.6-12.1-4.6-22V61.6c.34-17 3.33-29.45 20.9-29.5 5.3 0 9.3 1 12.1 2.9s4.8 4.9 6 9 1.7 9.7 1.7 16.9v11.7h-25.7zm2-28.8c-.8 1-1.3 2.5-1.6 4.7s-.4 10-.4 10v4.9h11.2v-4.9c0 4.9-.1-7.7-.4-10s-.8-3.9-1.6-4.8-2-1.4-3.6-1.4c-1.7.1-2.9.6-3.6 1.5zM190.5 71.4L173 8.2h15.3s7.15 31.7 9.6 46.6h.4c2.78-15.82 9.8-46.6 9.8-46.6h15.3l-17.7 63.1v30.3h-15.1V71.4z"
       id="path6" />
    <path
       id="A"
       d="M311.5 33.4v68.3h-12l-1.3-8.4h-.3c-3.3 6.3-8.2 9.5-14.7 9.5-11.77-.03-13.08-10-13.2-18.4v-51h15.4v50.1c0 3 .3 5.2 1 6.5 1.42 2.78 5.1 2.07 7.1.7a8 8 0 0 0 2.7-3.1V33.4z"
       fill="#282828" />
    <path
       d="M353.3 20.6H338v81.1h-15V20.6h-15.3V8.2h45.5v12.4zm87.9 23.7c-.9-4.3-2.4-7.4-4.5-9.4-2.1-1.9-4.9-2.9-8.6-2.9a14.1 14.1 0 0 0-7.9 2.4c-2.5 1.6-4.3 3.7-5.7 6.3h-.1v-36h-14.8v96.9h12.7l1.6-6.5h.3a14 14 0 0 0 5.3 5.5c2.4 1.3 5 2 7.9 2 5.2 0 9-2.4 11.5-7.2 2.4-4.8 3.7-12.3 3.7-22.4V62.2c0-7.6-.5-13.6-1.4-17.9zm-14.1 27.9c0 5-.2 8.9-.6 11.7s-1.1 4.8-2.1 6-2.3 1.8-3.9 1.8c-3.1-.1-4.86-1.5-6.1-3.6V49.3c.5-1.9 1.4-3.4 2.7-4.6 2.2-2.47 5.96-2.5 7.7 0 .9 1.2 1.4 3.3 1.8 6.2.3 2.9.5 7 .5 12.4z"
       id="path9" />
  </g>
  <use
     xlink:href="#A"
     x="78.9"
     id="use13" />
  <text
     xml:space="preserve"
     transform="matrix(1.1585366,0,0,1.1585366,0,-8.7195122)"
     id="text6744"
     style="font-style:normal;font-weight:normal;font-size:40px;line-height:1.25;font-family:sans-serif;white-space:pre;shape-inside:url(#rect6746);fill:#000000;fill-opacity:1;stroke:none" />
  <text
     xml:space="preserve"
     transform="matrix(1.1585366,0,0,1.1585366,0,-8.7195122)"
     id="text30700"
     style="font-style:normal;font-weight:normal;font-size:40px;line-height:1.25;font-family:Chalkduster;white-space:pre;shape-inside:url(#rect30702);fill:#000000;fill-opacity:1;stroke:none;-inkscape-font-specification:'Chalkduster, Normal';font-stretch:normal;font-variant:normal;font-variant-ligatures:normal;font-variant-caps:normal;font-variant-numeric:normal;font-variant-east-asian:normal" />
  <text
     xml:space="preserve"
     transform="matrix(1.1585366,0,0,1.1585366,0,-8.7195122)"
     id="text51932"
     style="fill:black;fill-opacity:1;line-height:1.25;stroke:none;font-family:sans-serif;font-style:normal;font-weight:normal;font-size:40px;white-space:pre;shape-inside:url(#rect51934)" />
  <text
     xml:space="preserve"
     transform="matrix(1.1585366,0,0,1.1585366,0,-8.7195122)"
     id="text59000"
     style="fill:black;fill-opacity:1;line-height:1.25;stroke:none;font-family:sans-serif;font-style:normal;font-weight:normal;font-size:40px;white-space:pre;shape-inside:url(#rect59002)" />
  <text
     xml:space="preserve"
     transform="matrix(1.1585366,0,0,1.1585366,0,-8.7195122)"
     id="text65650"
     style="font-style:normal;font-weight:normal;font-size:40px;line-height:1.25;font-family:sans-serif;white-space:pre;shape-inside:url(#rect65652);fill:#000000;fill-opacity:1;stroke:none"><tspan
       x="425.44141"
       y="69.649573"
       id="tspan72401"><tspan
         style="font-size:73.3333px;font-family:Chalkduster;-inkscape-font-specification:'Chalkduster, Normal';fill:#c83737"
         id="tspan72399">*</tspan></tspan></text>
</svg>
